<svg version="1.1" id="Layer_1" xmlns="http://www.w3.org/2000/svg" xmlns:xlink="http://www.w3.org/1999/xlink" x="0px" y="0px"
	 width="100%" viewBox="0 0 116 128" enable-background="new 0 0 116 128" xml:space="preserve">
<path fill="#FFFFFF" opacity="1.000000" stroke="none" 
	d="
M117.000000,54.000000 
	C117.000000,79.333328 117.000000,104.166656 117.000000,129.000000 
	C78.333344,129.000000 39.666683,129.000000 1.000017,129.000000 
	C1.000011,86.333344 1.000011,43.666691 1.000006,1.000029 
	C39.666649,1.000019 78.333298,1.000019 116.999969,1.000010 
	C117.000000,18.500000 117.000000,36.000000 117.000000,54.000000 
M104.731155,30.422153 
	C96.164169,21.762621 87.597176,13.103086 78.284821,4.089439 
	C59.957417,4.060277 41.629887,3.980042 23.302664,4.024880 
	C14.941196,4.045336 10.091693,8.902159 10.038157,17.477024 
	C9.939349,33.303761 10.055558,49.131844 10.011118,65.906464 
	C10.007572,81.066483 9.937956,96.226906 10.028339,111.386360 
	C10.073568,118.972321 14.561431,123.896187 21.874126,123.939049 
	C46.029316,124.080605 70.186470,124.079231 94.341545,123.925606 
	C101.190498,123.882050 105.727669,119.082726 105.948845,112.168655 
	C106.097649,107.516907 105.839394,102.852135 105.933533,97.245369 
	C105.955269,76.376465 105.992348,55.507542 105.959541,34.638725 
	C105.957634,33.424458 105.389603,32.211079 104.731155,30.422153 
z"/>
<path fill="#7FAFF0" opacity="1.000000" stroke="none" 
	d="
M10.082183,64.959366 
	C10.055558,49.131844 9.939349,33.303761 10.038157,17.477024 
	C10.091693,8.902159 14.941196,4.045336 23.302664,4.024880 
	C41.629887,3.980042 59.957417,4.060277 78.627968,4.777457 
	C78.965317,10.442327 78.923981,15.419463 78.963615,20.395954 
	C79.003952,25.461153 81.705643,29.740534 86.172401,30.578863 
	C92.287392,31.726530 98.763634,30.949423 105.085037,30.997288 
	C105.389603,32.211079 105.957634,33.424458 105.959541,34.638725 
	C105.992348,55.507542 105.955269,76.376465 105.560028,97.551895 
	C99.753708,92.980080 94.221840,88.205894 88.933167,83.176003 
	C86.566483,80.925110 84.710594,80.825073 82.012131,82.646690 
	C75.961227,86.731400 69.613472,90.375290 63.544041,94.434120 
	C60.994873,96.138832 59.155994,96.335701 56.429562,94.493813 
	C43.113491,85.497856 29.630259,76.748314 16.156631,67.987778 
	C14.272141,66.762489 12.113772,65.958420 10.082183,64.959366 
M67.229736,59.632336 
	C71.076950,53.551960 70.895500,48.146484 66.695953,43.730759 
	C62.863720,39.701256 56.843079,38.809486 52.083344,41.566357 
	C45.900627,45.147442 44.100288,53.012917 48.137070,58.807251 
	C52.549938,65.141434 59.920048,65.699677 67.229736,59.632336 
z"/>
<path fill="#3E5F8D" opacity="1.000000" stroke="none" 
	d="
M10.046650,65.432915 
	C12.113772,65.958420 14.272141,66.762489 16.156631,67.987778 
	C29.630259,76.748314 43.113491,85.497856 56.429562,94.493813 
	C59.155994,96.335701 60.994873,96.138832 63.544041,94.434120 
	C69.613472,90.375290 75.961227,86.731400 82.012131,82.646690 
	C84.710594,80.825073 86.566483,80.925110 88.933167,83.176003 
	C94.221840,88.205894 99.753708,92.980080 105.474884,98.025803 
	C105.839394,102.852135 106.097649,107.516907 105.948845,112.168655 
	C105.727669,119.082726 101.190498,123.882050 94.341545,123.925606 
	C70.186470,124.079231 46.029316,124.080605 21.874126,123.939049 
	C14.561431,123.896187 10.073568,118.972321 10.028339,111.386360 
	C9.937956,96.226906 10.007572,81.066483 10.046650,65.432915 
z"/>
<path fill="#5278AE" opacity="1.000000" stroke="none" 
	d="
M104.908096,30.709721 
	C98.763634,30.949423 92.287392,31.726530 86.172401,30.578863 
	C81.705643,29.740534 79.003952,25.461153 78.963615,20.395954 
	C78.923981,15.419463 78.965317,10.442327 79.000648,4.954515 
	C87.597176,13.103086 96.164169,21.762621 104.908096,30.709721 
z"/>
<path fill="#F6D056" opacity="1.000000" stroke="none" 
	d="
M66.991417,59.924828 
	C59.920048,65.699677 52.549938,65.141434 48.137070,58.807251 
	C44.100288,53.012917 45.900627,45.147442 52.083344,41.566357 
	C56.843079,38.809486 62.863720,39.701256 66.695953,43.730759 
	C70.895500,48.146484 71.076950,53.551960 66.991417,59.924828 
z"/>
</svg>